<svg xmlns="http://www.w3.org/2000/svg" xmlns:svg="http://www.w3.org/2000/svg" xmlns:xlink="http://www.w3.org/1999/xlink" id="svg2" width="222.783" height="323.556" version="1.1" viewBox="0 0 167.087 242.667" xml:space="preserve"><metadata id="metadata43"/><defs id="defs41"><radialGradient id="radialGradient3760" cx="48.231" cy="18.138" r="9.5" fx="48.231" fy="18.138" gradientTransform="matrix(-1.5605256,0.01828294,-0.02684055,-2.2909528,123.98377,58.809108)" gradientUnits="userSpaceOnUse" xlink:href="#linearGradient2984"/><linearGradient id="linearGradient2984"><stop style="stop-color:#000;stop-opacity:1" id="stop2986" offset="0"/><stop style="stop-color:#000;stop-opacity:.65648854" id="stop2988" offset="1"/></linearGradient><radialGradient id="radialGradient3792" cx="171.487" cy="511.223" r="81.903" fx="171.487" fy="511.223" gradientTransform="matrix(1.1529891,-0.67391547,0.39482025,0.67549043,-233.63262,270.40076)" gradientUnits="userSpaceOnUse" xlink:href="#linearGradient3784"/><linearGradient id="linearGradient3784"><stop style="stop-color:#fff;stop-opacity:.53435117" id="stop3786" offset="0"/><stop style="stop-color:#000;stop-opacity:0" id="stop3788" offset="1"/></linearGradient><filter id="filter3834" width="1.279" height="1.325" x="-.139" y="-.162" color-interpolation-filters="sRGB"><feGaussianBlur id="feGaussianBlur3836" stdDeviation="9.511"/></filter><radialGradient id="radialGradient3855" cx="171.487" cy="511.223" r="81.903" fx="171.487" fy="511.223" gradientTransform="matrix(1.1529891,-0.67391547,0.39482025,0.67549043,-233.63262,270.40076)" gradientUnits="userSpaceOnUse" xlink:href="#linearGradient3784-4"/><linearGradient id="linearGradient3784-4"><stop style="stop-color:#fff;stop-opacity:.51908398" id="stop3786-8" offset="0"/><stop style="stop-color:#000;stop-opacity:0" id="stop3788-6" offset="1"/></linearGradient><filter id="filter3834-6" width="1.279" height="1.325" x="-.139" y="-.162" color-interpolation-filters="sRGB"><feGaussianBlur id="feGaussianBlur3836-6" stdDeviation="9.511"/></filter><radialGradient id="radialGradient3916" cx="181.694" cy="461.841" r="81.903" fx="181.694" fy="461.841" gradientTransform="matrix(1.1529891,-0.67391547,0.39482025,0.67549043,-233.63262,270.40076)" gradientUnits="userSpaceOnUse" xlink:href="#linearGradient3784-3"/><linearGradient id="linearGradient3784-3"><stop style="stop-color:#fff;stop-opacity:.70229006" id="stop3786-86" offset="0"/><stop style="stop-color:#000;stop-opacity:0" id="stop3788-2" offset="1"/></linearGradient><filter id="filter3834-7" width="1.279" height="1.325" x="-.139" y="-.162" color-interpolation-filters="sRGB"><feGaussianBlur id="feGaussianBlur3836-0" stdDeviation="9.511"/></filter></defs><g id="Layer_x0020_1" style="fill-rule:nonzero;clip-rule:nonzero;stroke:#000;stroke-miterlimit:4"><path style="fill:#fff;stroke-width:.5" id="path5" d="M166.8369141,235.5478516c0,3.7773438-3.0869141,6.8691406-6.8710938,6.8691406H7.1108398c-3.7749023,0-6.8608398-3.0917969-6.8608398-6.8691406V7.1201172C0.25,3.3427734,3.3359375,0.25,7.1108398,0.25h152.8549805 c3.7841797,0,6.8710938,3.0927734,6.8710938,6.8701172v228.4277344z"/></g><text style="font-size:32px;font-style:normal;font-weight:400;line-height:125%;letter-spacing:0;word-spacing:0;fill:#000;fill-opacity:1;stroke:none;font-family:Bitstream Vera Sans" id="text3788" x="9.911" y="27.548" xml:space="preserve"><tspan id="tspan3790" x="9.911" y="27.548" style="font-style:normal;font-variant:normal;font-weight:400;font-stretch:normal;font-family:Arial;-inkscape-font-specification:Arial">J</tspan></text><g id="g3804" transform="matrix(0.20614599,0,0,0.20614599,8.8705463,16.512759)"><g id="layer1-1" transform="matrix(28.969925,0,0,28.969925,-1031.5368,-187.37665)"><path style="fill:url(#radialGradient3760);fill-opacity:1" id="cl" d="m 50.291466,22.698228 c 0,0 2.375,-1.9 2.375,-4.534 0,-1.542 -1.369,-4.102 -4.534,-4.102 -3.165,0 -4.534,2.561 -4.534,4.102 0,2.634 2.375,4.534 2.375,4.534 -2.638,-2.055 -7.341,-0.652 -7.341,3.455 0,2.056 1.68,4.318 4.318,4.318 3.165,0 4.534,-3.455 4.534,-3.455 0,0 0.402,3.938 -1.943,6.046 h 5.182 c -2.345,-2.107 -1.943,-6.046 -1.943,-6.046 0,0 1.369,3.455 4.534,3.455 2.639,0 4.318,-2.263 4.318,-4.318 0,-4.107 -4.703,-5.51 -7.341,-3.455 z"/></g><path id="path3762" d="m 117.3013,604.26609 c 0,0 -8.06755,-94.94997 22.85715,-122.85714 34.76052,-31.36871 140,-11.42857 140,-11.42857 0,0 -71.5404,24.83762 -100,48.57143 -27.21033,22.69199 -62.85715,85.71428 -62.85715,85.71428 z" transform="matrix(1.1091261,0,0,1.2071687,-37.349149,-111.34227)" style="fill:url(#radialGradient3792);fill-opacity:1;stroke:none;filter:url(#filter3834)"/><path id="path3762-6" d="m 117.3013,604.26609 c 0,0 -8.06755,-94.94997 22.85715,-122.85714 34.76052,-31.36871 140,-11.42857 140,-11.42857 0,0 -71.5404,24.83762 -100,48.57143 -27.21033,22.69199 -62.85715,85.71428 -62.85715,85.71428 z" transform="matrix(1.1091261,0,0,1.2071687,117.2523,-332.26545)" style="fill:url(#radialGradient3855);fill-opacity:1;stroke:none;filter:url(#filter3834-6)"/><path id="path3762-7" d="m 117.3013,604.26609 c 0,0 -8.06755,-94.94997 22.85715,-122.85714 34.76052,-31.36871 140,-11.42857 140,-11.42857 0,0 -71.5404,24.83762 -100,48.57143 -27.21033,22.69199 -62.85715,85.71428 -62.85715,85.71428 z" transform="matrix(1.1420384,0.7029084,-0.84188482,1.367838,729.37187,-305.07466)" style="fill:url(#radialGradient3916);fill-opacity:1;stroke:none;filter:url(#filter3834-7)"/><path id="rect3015" d="m 28.355532,122.02522 0,734.28125 667.156248,0 0,-734.28125 -667.156248,0 z m 334.281258,97.625 c 91.68979,0 131.37499,74.17213 131.37499,118.84375 0,76.30678 -68.8125,131.34375 -68.8125,131.34375 76.42266,-59.5332 212.65625,-18.88573 212.65625,100.09375 0,59.5332 -48.64211,125.09375 -125.09375,125.09375 -91.68982,0 -131.34374,-100.09375 -131.34374,-100.09375 0,0 -11.65322,114.11662 56.28124,175.15625 l -150.12499,0 c 67.93447,-61.0686 56.3125,-175.15625 56.3125,-175.15625 0,0 -39.65394,100.09375 -131.34375,100.09375 -76.42266,0 -125.093758,-65.53158 -125.093758,-125.09375 0,-118.97948 136.233598,-159.62695 212.656258,-100.09375 0,0 -68.8125,-55.03697 -68.8125,-131.34375 0,-44.64265 39.65394,-118.84375 131.34375,-118.84375 z" style="fill:#fffeff;fill-opacity:1;fill-rule:nonzero;stroke:none"/></g><g id="layer1-1-4" transform="matrix(1.4856506,0,0,1.4856506,-54.024661,10.018072)"><path id="cl-9" d="m 50.291466,22.698228 c 0,0 2.375,-1.9 2.375,-4.534 0,-1.542 -1.369,-4.102 -4.534,-4.102 -3.165,0 -4.534,2.561 -4.534,4.102 0,2.634 2.375,4.534 2.375,4.534 -2.638,-2.055 -7.341,-0.652 -7.341,3.455 0,2.056 1.68,4.318 4.318,4.318 3.165,0 4.534,-3.455 4.534,-3.455 0,0 0.402,3.938 -1.943,6.046 h 5.182 c -2.345,-2.107 -1.943,-6.046 -1.943,-6.046 0,0 1.369,3.455 4.534,3.455 2.639,0 4.318,-2.263 4.318,-4.318 0,-4.107 -4.703,-5.51 -7.341,-3.455 z" style="fill:#000"/></g><text style="font-size:32px;font-style:normal;font-weight:400;line-height:125%;letter-spacing:0;word-spacing:0;fill:#000;fill-opacity:1;stroke:none;font-family:Bitstream Vera Sans" id="text3788-8" x="-157.264" y="-214.467" transform="scale(-1,-1)" xml:space="preserve"><tspan id="tspan3790-7" x="-157.264" y="-214.467" style="font-style:normal;font-variant:normal;font-weight:400;font-stretch:normal;font-family:Arial;-inkscape-font-specification:Arial">J</tspan></text><g id="layer1-1-4-1" transform="matrix(-1.4856506,0,0,-1.4856506,221.19916,232.46182)"><path id="cl-9-7" d="m 50.291466,22.698228 c 0,0 2.375,-1.9 2.375,-4.534 0,-1.542 -1.369,-4.102 -4.534,-4.102 -3.165,0 -4.534,2.561 -4.534,4.102 0,2.634 2.375,4.534 2.375,4.534 -2.638,-2.055 -7.341,-0.652 -7.341,3.455 0,2.056 1.68,4.318 4.318,4.318 3.165,0 4.534,-3.455 4.534,-3.455 0,0 0.402,3.938 -1.943,6.046 h 5.182 c -2.345,-2.107 -1.943,-6.046 -1.943,-6.046 0,0 1.369,3.455 4.534,3.455 2.639,0 4.318,-2.263 4.318,-4.318 0,-4.107 -4.703,-5.51 -7.341,-3.455 z" style="fill:#000"/></g></svg>