<svg xmlns="http://www.w3.org/2000/svg" xmlns:svg="http://www.w3.org/2000/svg" xmlns:xlink="http://www.w3.org/1999/xlink" id="svg2" width="222.783" height="323.556" version="1.1" viewBox="0 0 167.087 242.667" xml:space="preserve"><metadata id="metadata43"/><defs id="defs41"><radialGradient id="radialGradient3781" cx="-.158" cy="-8.835" r="8" fx="-.158" fy="-8.835" gradientTransform="matrix(-1.5842693,-0.02349808,0.03071979,-2.4775745,-0.24856378,-26.713507)" gradientUnits="userSpaceOnUse" xlink:href="#linearGradient3773"/><linearGradient id="linearGradient3773"><stop style="stop-color:#000;stop-opacity:1" id="stop3775" offset="0"/><stop style="stop-color:#000;stop-opacity:.64885497" id="stop3777" offset="1"/></linearGradient><radialGradient id="radialGradient3957" cx="-.158" cy="-8.835" r="8" fx="-.158" fy="-8.835" gradientTransform="matrix(-1.5842693,-0.02349808,0.03071979,-2.4775745,-0.24856378,-26.713507)" gradientUnits="userSpaceOnUse" xlink:href="#linearGradient3773"/><linearGradient id="linearGradient3959"><stop style="stop-color:#000;stop-opacity:1" id="stop3961" offset="0"/><stop style="stop-color:#000;stop-opacity:.64885497" id="stop3963" offset="1"/></linearGradient><radialGradient id="radialGradient3975" cx="168.025" cy="509.476" r="81.903" fx="168.025" fy="509.476" gradientTransform="matrix(1.2565605,-0.77740644,0.33663816,0.5361257,-221.20213,359.24256)" gradientUnits="userSpaceOnUse" xlink:href="#linearGradient3784-4"/><linearGradient id="linearGradient3784-4"><stop style="stop-color:#fff;stop-opacity:.4351145" id="stop3786-8" offset="0"/><stop style="stop-color:#000;stop-opacity:0" id="stop3788-6" offset="1"/></linearGradient><filter id="filter3803" width="1.661" height="1.329" x="-.331" y="-.164" color-interpolation-filters="sRGB"><feGaussianBlur id="feGaussianBlur3805" stdDeviation="14.131"/></filter><radialGradient id="radialGradient3929" cx="168.025" cy="509.476" r="81.903" fx="168.025" fy="509.476" gradientTransform="matrix(1.2565605,-0.77740644,0.33663816,0.5361257,-221.20213,359.24256)" gradientUnits="userSpaceOnUse" xlink:href="#linearGradient3784-4-5"/><linearGradient id="linearGradient3784-4-5"><stop style="stop-color:#fff;stop-opacity:.48854962" id="stop3786-8-0" offset="0"/><stop style="stop-color:#000;stop-opacity:0" id="stop3788-6-3" offset="1"/></linearGradient><filter id="filter3803-1" width="1.661" height="1.329" x="-.331" y="-.164" color-interpolation-filters="sRGB"><feGaussianBlur id="feGaussianBlur3805-8" stdDeviation="14.131"/></filter><radialGradient id="radialGradient3927" cx="168.025" cy="509.476" r="81.903" fx="168.025" fy="509.476" gradientTransform="matrix(1.2565605,-0.77740644,0.33663816,0.5361257,-221.20213,359.24256)" gradientUnits="userSpaceOnUse" xlink:href="#linearGradient3784-4-1"/><linearGradient id="linearGradient3784-4-1"><stop style="stop-color:#fff;stop-opacity:.23664123" id="stop3786-8-03" offset="0"/><stop style="stop-color:#000;stop-opacity:0" id="stop3788-6-6" offset="1"/></linearGradient><filter id="filter3803-73" width="1.661" height="1.329" x="-.331" y="-.164" color-interpolation-filters="sRGB"><feGaussianBlur id="feGaussianBlur3805-2" stdDeviation="14.131"/></filter><radialGradient id="radialGradient3990" cx="-.158" cy="-8.835" r="8" fx="-.158" fy="-8.835" gradientTransform="matrix(-1.5842693,-0.02349808,0.03071979,-2.4775745,-0.24856378,-26.713507)" gradientUnits="userSpaceOnUse" xlink:href="#linearGradient3773"/><radialGradient id="radialGradient3161" cx="168.025" cy="509.476" r="81.903" fx="168.025" fy="509.476" gradientTransform="matrix(1.2565605,-0.77740644,0.33663816,0.5361257,-221.20213,359.24256)" gradientUnits="userSpaceOnUse" xlink:href="#linearGradient3784-4"/><radialGradient id="radialGradient3163" cx="168.025" cy="509.476" r="81.903" fx="168.025" fy="509.476" gradientTransform="matrix(1.2565605,-0.77740644,0.33663816,0.5361257,-221.20213,359.24256)" gradientUnits="userSpaceOnUse" xlink:href="#linearGradient3784-4-5"/><radialGradient id="radialGradient3165" cx="168.025" cy="509.476" r="81.903" fx="168.025" fy="509.476" gradientTransform="matrix(1.2565605,-0.77740644,0.33663816,0.5361257,-221.20213,359.24256)" gradientUnits="userSpaceOnUse" xlink:href="#linearGradient3784-4-1"/></defs><g id="Layer_x0020_1" style="fill-rule:nonzero;clip-rule:nonzero;stroke:#000;stroke-miterlimit:4"><path style="fill:#fff;stroke-width:.5" id="path5" d="M166.8369141,235.5478516c0,3.7773438-3.0869141,6.8691406-6.8710938,6.8691406H7.1108398c-3.7749023,0-6.8608398-3.0917969-6.8608398-6.8691406V7.1201172C0.25,3.3427734,3.3359375,0.25,7.1108398,0.25h152.8549805 c3.7841797,0,6.8710938,3.0927734,6.8710938,6.8701172v228.4277344z"/></g><g id="g3886" transform="matrix(0.19861112,0,0,0.19861112,10.083458,15.428884)"><g style="fill:url(#radialGradient3781);fill-opacity:1" id="layer1-7-1" transform="matrix(31.754082,0,0,29.033123,371.73772,526.70948)"><path style="fill:url(#radialGradient3990);fill-opacity:1" id="sl-5" d="M 7.989,3.103 C 7.747,-0.954 0.242,-8.59 0,-10.5 c -0.242,1.909 -7.747,9.545 -7.989,13.603 -0.169,2.868 1.695,4.057 3.39,4.057 1.8351685,-0.021581 3.3508701,-2.8006944 3.873,-3.341 0.242,0.716 -1.603,6.682 -2.179,6.682 l 5.811,0 C 2.33,10.501 0.485,4.535 0.727,3.819 1.1841472,4.3152961 2.5241276,7.0768295 4.601,7.16 6.295,7.159 8.158,5.971 7.989,3.103 z"/></g><path id="path3762-6" d="m 122.35696,574.3828 c 0,0 -13.12321,-65.06668 17.80149,-92.97385 34.76052,-31.36871 150.11131,-71.19514 150.11131,-71.19514 0,0 -81.65171,84.60419 -110.11131,108.338 -27.21033,22.69199 -57.80149,55.83099 -57.80149,55.83099 z" transform="matrix(1.6424579,-1.0823671,1.3447782,1.5795529,-783.50446,-14.751674)" style="fill:url(#radialGradient3161);fill-opacity:1;stroke:none;filter:url(#filter3803)"/><path id="path3762-6-0" d="m 122.35696,574.3828 c 0,0 -13.12321,-65.06668 17.80149,-92.97385 34.76052,-31.36871 150.11131,-71.19514 150.11131,-71.19514 0,0 -81.65171,84.60419 -110.11131,108.338 -27.21033,22.69199 -57.80149,55.83099 -57.80149,55.83099 z" transform="matrix(2.4895276,-0.12376278,1.1284583,2.8922395,-742.11602,-945.22788)" style="fill:url(#radialGradient3163);fill-opacity:1;stroke:none;filter:url(#filter3803-1)"/><path id="path3762-6-2" d="m 122.35696,574.3828 c 0,0 -13.12321,-65.06668 17.80149,-92.97385 34.76052,-31.36871 150.11131,-71.19514 150.11131,-71.19514 0,0 -81.65171,84.60419 -110.11131,108.338 -27.21033,22.69199 -57.80149,55.83099 -57.80149,55.83099 z" transform="matrix(1.9426966,-0.30840977,0.57340172,1.9936465,-290.37789,-568.34554)" style="fill:url(#radialGradient3165);fill-opacity:1;stroke:none;filter:url(#filter3803-73)"/><path id="rect3865" d="m 19.993242,106.65013 0,854.28121 677.156298,0 0,-854.28121 -677.156298,0 z M 371.74324,221.86888 c 7.6845,55.45326 245.9718,277.15012 253.6563,394.93746 5.3664,83.267 -53.7711,117.7523 -107.5625,117.7813 -65.9492,-2.4147 -108.515,-82.591 -123.0313,-97 -7.6845,20.7877 50.8972,194 69.1875,194 l -184.5,0 c 18.2904,0 76.872,-173.2123 69.1875,-194 -16.5797,15.6867 -64.7259,96.3734 -123,97 -53.8231,0 -112.9914,-34.5143 -107.625,-117.7813 7.6845,-117.81637 246.003,-339.51323 253.6875,-394.93746 z" style="fill:#fffeff;fill-opacity:1;fill-rule:nonzero;stroke:none"/></g><text style="font-size:32px;font-style:normal;font-weight:400;line-height:125%;letter-spacing:0;word-spacing:0;fill:#000;fill-opacity:1;stroke:none;font-family:Bitstream Vera Sans" id="text3788-2" x="-157.421" y="-215.794" transform="scale(-1,-1)" xml:space="preserve"><tspan id="tspan3790-3" x="-157.421" y="-215.794" style="font-style:normal;font-variant:normal;font-weight:400;font-stretch:normal;font-family:Arial;-inkscape-font-specification:Arial">J</tspan></text><g id="layer1-7-8" transform="matrix(-1.5085945,0,0,-1.3793253,150.22472,198.04381)"><path id="sl-0" d="M 7.989,3.103 C 7.747,-0.954 0.242,-8.59 0,-10.5 c -0.242,1.909 -7.747,9.545 -7.989,13.603 -0.169,2.868 1.695,4.057 3.39,4.057 1.8351685,-0.021581 3.3508701,-2.8006944 3.873,-3.341 0.242,0.716 -1.603,6.682 -2.179,6.682 l 5.811,0 C 2.33,10.501 0.485,4.535 0.727,3.819 1.1841472,4.3152961 2.5241276,7.0768295 4.601,7.16 6.295,7.159 8.158,5.971 7.989,3.103 z" style="fill:#000"/></g><text style="font-size:32px;font-style:normal;font-weight:400;line-height:125%;letter-spacing:0;word-spacing:0;fill:#000;fill-opacity:1;stroke:none;font-family:Bitstream Vera Sans" id="text3788" x="9.5" y="28.013" xml:space="preserve"><tspan id="tspan3790" x="9.5" y="28.013" style="font-style:normal;font-variant:normal;font-weight:400;font-stretch:normal;font-family:Arial;-inkscape-font-specification:Arial">J</tspan></text><g id="layer1-7" transform="matrix(1.5085945,0,0,1.3793253,16.929041,45.066155)"><path id="sl" d="M 7.989,3.103 C 7.747,-0.954 0.242,-8.59 0,-10.5 c -0.242,1.909 -7.747,9.545 -7.989,13.603 -0.169,2.868 1.695,4.057 3.39,4.057 1.8351685,-0.021581 3.3508701,-2.8006944 3.873,-3.341 0.242,0.716 -1.603,6.682 -2.179,6.682 l 5.811,0 C 2.33,10.501 0.485,4.535 0.727,3.819 1.1841472,4.3152961 2.5241276,7.0768295 4.601,7.16 6.295,7.159 8.158,5.971 7.989,3.103 z" style="fill:#000"/></g></svg>