<svg xmlns="http://www.w3.org/2000/svg" xmlns:svg="http://www.w3.org/2000/svg" id="svg2" width="222.783" height="323.556" version="1.1" viewBox="0 0 167.087 242.667" xml:space="preserve"><metadata id="metadata43"/><g id="Layer_x0020_1" style="fill-rule:nonzero;clip-rule:nonzero;stroke:#000;stroke-miterlimit:4"><path style="fill:#fff;stroke-width:.5" id="path5" d="M166.8369141,235.5478516c0,3.7773438-3.0869141,6.8691406-6.8710938,6.8691406H7.1108398c-3.7749023,0-6.8608398-3.0917969-6.8608398-6.8691406V7.1201172C0.25,3.3427734,3.3359375,0.25,7.1108398,0.25h152.8549805 c3.7841797,0,6.8710938,3.0927734,6.8710938,6.8701172v228.4277344z"/></g><text style="font-size:32px;font-style:normal;font-weight:400;line-height:125%;letter-spacing:0;word-spacing:0;fill:#000;fill-opacity:1;stroke:none;font-family:Bitstream Vera Sans" id="text3788" x=".044" y="28.342" xml:space="preserve"><tspan id="tspan3790" x=".044" y="28.342" style="font-style:normal;font-variant:normal;font-weight:400;font-stretch:normal;font-family:Arial;-inkscape-font-specification:Arial">1</tspan></text><g id="layer1-7" transform="matrix(1.5085945,0,0,1.3793253,16.929041,45.065897)"><path id="sl" d="M 7.989,3.103 C 7.747,-0.954 0.242,-8.59 0,-10.5 c -0.242,1.909 -7.747,9.545 -7.989,13.603 -0.169,2.868 1.695,4.057 3.39,4.057 1.8351685,-0.021581 3.3508701,-2.8006944 3.873,-3.341 0.242,0.716 -1.603,6.682 -2.179,6.682 l 5.811,0 C 2.33,10.501 0.485,4.535 0.727,3.819 1.1841472,4.3152961 2.5241276,7.0768295 4.601,7.16 6.295,7.159 8.158,5.971 7.989,3.103 z" style="fill:#000"/></g><g id="layer1-7-88" transform="matrix(2.6486789,0,0,2.4217176,53.01089,31.765995)"><path id="sl-4" d="M 7.989,3.103 C 7.747,-0.954 0.242,-8.59 0,-10.5 c -0.242,1.909 -7.747,9.545 -7.989,13.603 -0.169,2.868 1.695,4.057 3.39,4.057 1.8351685,-0.021581 3.3508701,-2.8006944 3.873,-3.341 0.242,0.716 -1.603,6.682 -2.179,6.682 l 5.811,0 C 2.33,10.501 0.485,4.535 0.727,3.819 1.1841472,4.3152961 2.5241276,7.0768295 4.601,7.16 6.295,7.159 8.158,5.971 7.989,3.103 z" style="fill:#000"/></g><g id="layer1-7-3" transform="matrix(-1.5085945,0,0,-1.3793253,150.22511,198.04408)"><path id="sl-1" d="M 7.989,3.103 C 7.747,-0.954 0.242,-8.59 0,-10.5 c -0.242,1.909 -7.747,9.545 -7.989,13.603 -0.169,2.868 1.695,4.057 3.39,4.057 1.8351685,-0.021581 3.3508701,-2.8006944 3.873,-3.341 0.242,0.716 -1.603,6.682 -2.179,6.682 l 5.811,0 C 2.33,10.501 0.485,4.535 0.727,3.819 1.1841472,4.3152961 2.5241276,7.0768295 4.601,7.16 6.295,7.159 8.158,5.971 7.989,3.103 z" style="fill:#000"/></g><g id="layer1-7-88-8" transform="matrix(2.6486789,0,0,2.4217176,53.339713,94.698498)"><path id="sl-4-8" d="M 7.989,3.103 C 7.747,-0.954 0.242,-8.59 0,-10.5 c -0.242,1.909 -7.747,9.545 -7.989,13.603 -0.169,2.868 1.695,4.057 3.39,4.057 1.8351685,-0.021581 3.3508701,-2.8006944 3.873,-3.341 0.242,0.716 -1.603,6.682 -2.179,6.682 l 5.811,0 C 2.33,10.501 0.485,4.535 0.727,3.819 1.1841472,4.3152961 2.5241276,7.0768295 4.601,7.16 6.295,7.159 8.158,5.971 7.989,3.103 z" style="fill:#000"/></g><g id="layer1-7-88-4" transform="matrix(-2.6486789,0,0,-2.4217176,53.789261,212.66394)"><path id="sl-4-3" d="M 7.989,3.103 C 7.747,-0.954 0.242,-8.59 0,-10.5 c -0.242,1.909 -7.747,9.545 -7.989,13.603 -0.169,2.868 1.695,4.057 3.39,4.057 1.8351685,-0.021581 3.3508701,-2.8006944 3.873,-3.341 0.242,0.716 -1.603,6.682 -2.179,6.682 l 5.811,0 C 2.33,10.501 0.485,4.535 0.727,3.819 1.1841472,4.3152961 2.5241276,7.0768295 4.601,7.16 6.295,7.159 8.158,5.971 7.989,3.103 z" style="fill:#000"/></g><g id="layer1-7-88-8-1" transform="matrix(-2.6486789,0,0,-2.4217176,53.460438,151.33144)"><path id="sl-4-8-4" d="M 7.989,3.103 C 7.747,-0.954 0.242,-8.59 0,-10.5 c -0.242,1.909 -7.747,9.545 -7.989,13.603 -0.169,2.868 1.695,4.057 3.39,4.057 1.8351685,-0.021581 3.3508701,-2.8006944 3.873,-3.341 0.242,0.716 -1.603,6.682 -2.179,6.682 l 5.811,0 C 2.33,10.501 0.485,4.535 0.727,3.819 1.1841472,4.3152961 2.5241276,7.0768295 4.601,7.16 6.295,7.159 8.158,5.971 7.989,3.103 z" style="fill:#000"/></g><g id="layer1-7-88-9" transform="matrix(2.6486789,0,0,2.4217176,114.97822,31.578035)"><path id="sl-4-2" d="M 7.989,3.103 C 7.747,-0.954 0.242,-8.59 0,-10.5 c -0.242,1.909 -7.747,9.545 -7.989,13.603 -0.169,2.868 1.695,4.057 3.39,4.057 1.8351685,-0.021581 3.3508701,-2.8006944 3.873,-3.341 0.242,0.716 -1.603,6.682 -2.179,6.682 l 5.811,0 C 2.33,10.501 0.485,4.535 0.727,3.819 1.1841472,4.3152961 2.5241276,7.0768295 4.601,7.16 6.295,7.159 8.158,5.971 7.989,3.103 z" style="fill:#000"/></g><g id="layer1-7-88-8-0" transform="matrix(2.6486789,0,0,2.4217176,115.30704,94.510535)"><path id="sl-4-8-6" d="M 7.989,3.103 C 7.747,-0.954 0.242,-8.59 0,-10.5 c -0.242,1.909 -7.747,9.545 -7.989,13.603 -0.169,2.868 1.695,4.057 3.39,4.057 1.8351685,-0.021581 3.3508701,-2.8006944 3.873,-3.341 0.242,0.716 -1.603,6.682 -2.179,6.682 l 5.811,0 C 2.33,10.501 0.485,4.535 0.727,3.819 1.1841472,4.3152961 2.5241276,7.0768295 4.601,7.16 6.295,7.159 8.158,5.971 7.989,3.103 z" style="fill:#000"/></g><g id="layer1-7-88-4-8" transform="matrix(-2.6486789,0,0,-2.4217176,115.75659,212.47597)"><path id="sl-4-3-9" d="M 7.989,3.103 C 7.747,-0.954 0.242,-8.59 0,-10.5 c -0.242,1.909 -7.747,9.545 -7.989,13.603 -0.169,2.868 1.695,4.057 3.39,4.057 1.8351685,-0.021581 3.3508701,-2.8006944 3.873,-3.341 0.242,0.716 -1.603,6.682 -2.179,6.682 l 5.811,0 C 2.33,10.501 0.485,4.535 0.727,3.819 1.1841472,4.3152961 2.5241276,7.0768295 4.601,7.16 6.295,7.159 8.158,5.971 7.989,3.103 z" style="fill:#000"/></g><g id="layer1-7-88-8-1-2" transform="matrix(-2.6486789,0,0,-2.4217176,115.42777,151.14347)"><path id="sl-4-8-4-6" d="M 7.989,3.103 C 7.747,-0.954 0.242,-8.59 0,-10.5 c -0.242,1.909 -7.747,9.545 -7.989,13.603 -0.169,2.868 1.695,4.057 3.39,4.057 1.8351685,-0.021581 3.3508701,-2.8006944 3.873,-3.341 0.242,0.716 -1.603,6.682 -2.179,6.682 l 5.811,0 C 2.33,10.501 0.485,4.535 0.727,3.819 1.1841472,4.3152961 2.5241276,7.0768295 4.601,7.16 6.295,7.159 8.158,5.971 7.989,3.103 z" style="fill:#000"/></g><g id="layer1-7-88-6" transform="matrix(2.6486789,0,0,2.4217176,84.152135,64.171198)"><path id="sl-4-4" d="M 7.989,3.103 C 7.747,-0.954 0.242,-8.59 0,-10.5 c -0.242,1.909 -7.747,9.545 -7.989,13.603 -0.169,2.868 1.695,4.057 3.39,4.057 1.8351685,-0.021581 3.3508701,-2.8006944 3.873,-3.341 0.242,0.716 -1.603,6.682 -2.179,6.682 l 5.811,0 C 2.33,10.501 0.485,4.535 0.727,3.819 1.1841472,4.3152961 2.5241276,7.0768295 4.601,7.16 6.295,7.159 8.158,5.971 7.989,3.103 z" style="fill:#000"/></g><g id="layer1-7-88-6-6" transform="matrix(-2.6486789,0,0,-2.4217176,84.480868,180.54025)"><path id="sl-4-4-8" d="M 7.989,3.103 C 7.747,-0.954 0.242,-8.59 0,-10.5 c -0.242,1.909 -7.747,9.545 -7.989,13.603 -0.169,2.868 1.695,4.057 3.39,4.057 1.8351685,-0.021581 3.3508701,-2.8006944 3.873,-3.341 0.242,0.716 -1.603,6.682 -2.179,6.682 l 5.811,0 C 2.33,10.501 0.485,4.535 0.727,3.819 1.1841472,4.3152961 2.5241276,7.0768295 4.601,7.16 6.295,7.159 8.158,5.971 7.989,3.103 z" style="fill:#000"/></g><text style="font-size:32px;font-style:normal;font-weight:400;line-height:125%;letter-spacing:0;word-spacing:0;fill:#000;fill-opacity:1;stroke:none;font-family:Bitstream Vera Sans" id="text3038" x="12.206" y="28.671" xml:space="preserve"><tspan id="tspan3040" x="12.206" y="28.671">0</tspan></text><text style="font-size:32px;font-style:normal;font-weight:400;line-height:125%;letter-spacing:0;word-spacing:0;fill:#000;fill-opacity:1;stroke:none;font-family:Bitstream Vera Sans" id="text3788-4" x="-166.837" y="-214.583" transform="scale(-1,-1)" xml:space="preserve"><tspan id="tspan3790-3" x="-166.837" y="-214.583" style="font-style:normal;font-variant:normal;font-weight:400;font-stretch:normal;font-family:Arial;-inkscape-font-specification:Arial">1</tspan></text><text style="font-size:32px;font-style:normal;font-weight:400;line-height:125%;letter-spacing:0;word-spacing:0;fill:#000;fill-opacity:1;stroke:none;font-family:Bitstream Vera Sans" id="text3038-1" x="-154.674" y="-214.254" transform="scale(-1,-1)" xml:space="preserve"><tspan id="tspan3040-4" x="-154.674" y="-214.254">0</tspan></text></svg>