<svg xmlns="http://www.w3.org/2000/svg" xmlns:svg="http://www.w3.org/2000/svg" xmlns:xlink="http://www.w3.org/1999/xlink" id="svg2" width="222.783" height="323.556" version="1.1" viewBox="0 0 167.087 242.667" xml:space="preserve"><metadata id="metadata43"/><defs id="defs41"><radialGradient id="radialGradient3781" cx="-.158" cy="-8.835" r="8" fx="-.158" fy="-8.835" gradientTransform="matrix(-1.5842693,-0.02349808,0.03071979,-2.4775745,-0.24856378,-26.713507)" gradientUnits="userSpaceOnUse" xlink:href="#linearGradient3773"/><linearGradient id="linearGradient3773"><stop style="stop-color:#000;stop-opacity:1" id="stop3775" offset="0"/><stop style="stop-color:#000;stop-opacity:.64885497" id="stop3777" offset="1"/></linearGradient><radialGradient id="radialGradient3957" cx="-.158" cy="-8.835" r="8" fx="-.158" fy="-8.835" gradientTransform="matrix(-1.5842693,-0.02349808,0.03071979,-2.4775745,-0.24856378,-26.713507)" gradientUnits="userSpaceOnUse" xlink:href="#linearGradient3773"/><linearGradient id="linearGradient3959"><stop style="stop-color:#000;stop-opacity:1" id="stop3961" offset="0"/><stop style="stop-color:#000;stop-opacity:.64885497" id="stop3963" offset="1"/></linearGradient><radialGradient id="radialGradient3975" cx="168.025" cy="509.476" r="81.903" fx="168.025" fy="509.476" gradientTransform="matrix(1.2565605,-0.77740644,0.33663816,0.5361257,-221.20213,359.24256)" gradientUnits="userSpaceOnUse" xlink:href="#linearGradient3784-4"/><linearGradient id="linearGradient3784-4"><stop style="stop-color:#fff;stop-opacity:.4351145" id="stop3786-8" offset="0"/><stop style="stop-color:#000;stop-opacity:0" id="stop3788-6" offset="1"/></linearGradient><radialGradient id="radialGradient3929" cx="168.025" cy="509.476" r="81.903" fx="168.025" fy="509.476" gradientTransform="matrix(1.2565605,-0.77740644,0.33663816,0.5361257,-221.20213,359.24256)" gradientUnits="userSpaceOnUse" xlink:href="#linearGradient3784-4-5"/><linearGradient id="linearGradient3784-4-5"><stop style="stop-color:#fff;stop-opacity:.48854962" id="stop3786-8-0" offset="0"/><stop style="stop-color:#000;stop-opacity:0" id="stop3788-6-3" offset="1"/></linearGradient><radialGradient id="radialGradient3927" cx="168.025" cy="509.476" r="81.903" fx="168.025" fy="509.476" gradientTransform="matrix(1.2565605,-0.77740644,0.33663816,0.5361257,-221.20213,359.24256)" gradientUnits="userSpaceOnUse" xlink:href="#linearGradient3784-4-1"/><linearGradient id="linearGradient3784-4-1"><stop style="stop-color:#fff;stop-opacity:.23664123" id="stop3786-8-03" offset="0"/><stop style="stop-color:#000;stop-opacity:0" id="stop3788-6-6" offset="1"/></linearGradient><linearGradient id="linearGradient3768"><stop style="stop-color:#df0000;stop-opacity:1" id="stop3770" offset="0"/><stop style="stop-color:#df0000;stop-opacity:.67175573" id="stop3772" offset="1"/></linearGradient><linearGradient id="linearGradient3784-4-6"><stop style="stop-color:#fff;stop-opacity:.31297711" id="stop3786-8-8" offset="0"/><stop style="stop-color:#000;stop-opacity:0" id="stop3788-6-8" offset="1"/></linearGradient><radialGradient id="radialGradient4013-8" cx="159.354" cy="492.632" r="81.903" fx="159.354" fy="492.632" gradientTransform="matrix(1.0894779,-0.71513803,0.44645273,0.65626582,-244.93331,290.9185)" gradientUnits="userSpaceOnUse" xlink:href="#linearGradient3784-4-2"/><linearGradient id="linearGradient3784-4-2"><stop style="stop-color:#fff;stop-opacity:.29007635" id="stop3786-8-1" offset="0"/><stop style="stop-color:#000;stop-opacity:0" id="stop3788-6-5" offset="1"/></linearGradient><linearGradient id="linearGradient2984"><stop style="stop-color:#df0000;stop-opacity:1" id="stop2986" offset="0"/><stop style="stop-color:#df0000;stop-opacity:.64122134" id="stop2988" offset="1"/></linearGradient><linearGradient id="linearGradient3784-4-4"><stop style="stop-color:#fff;stop-opacity:.4351145" id="stop3786-8-8-2" offset="0"/><stop style="stop-color:#000;stop-opacity:0" id="stop3788-6-1" offset="1"/></linearGradient><radialGradient id="radialGradient3100" cx="171.487" cy="511.223" r="81.903" fx="171.487" fy="511.223" gradientTransform="matrix(1.1529891,-0.67391547,0.39482025,0.67549043,-233.63262,270.40076)" gradientUnits="userSpaceOnUse" xlink:href="#linearGradient3784-4-4"/><radialGradient id="radialGradient3137" cx="0" cy="-3.234" r="8" fx="0" fy="-3.234" gradientTransform="matrix(-1.1224159,0.00551393,-0.00908973,-1.8503101,-0.0293938,-10.227695)" gradientUnits="userSpaceOnUse" xlink:href="#linearGradient2984"/></defs><g id="Layer_x0020_1" style="fill-rule:nonzero;clip-rule:nonzero;stroke:#000;stroke-miterlimit:4"><path style="fill:#fff;stroke-width:.5" id="path5" d="M166.8369141,235.5478516c0,3.7773438-3.0869141,6.8691406-6.8710938,6.8691406H7.1108398c-3.7749023,0-6.8608398-3.0917969-6.8608398-6.8691406V7.1201172C0.25,3.3427734,3.3359375,0.25,7.1108398,0.25h152.8549805 c3.7841797,0,6.8710938,3.0927734,6.8710938,6.8701172v228.4277344z"/></g><text style="font-size:32px;font-style:normal;font-weight:400;line-height:125%;letter-spacing:0;word-spacing:0;fill:#df0000;fill-opacity:1;stroke:none;font-family:Bitstream Vera Sans" id="text3788" x="7.846" y="26.413" xml:space="preserve"><tspan id="tspan3790" x="7.846" y="26.413" style="font-style:normal;font-variant:normal;font-weight:400;font-stretch:normal;fill:#df0000;fill-opacity:1;font-family:Arial;-inkscape-font-specification:Arial">3</tspan></text><text style="font-size:32px;font-style:normal;font-weight:400;line-height:125%;letter-spacing:0;word-spacing:0;fill:#df0000;fill-opacity:1;stroke:none;font-family:Bitstream Vera Sans" id="text3788-4" x="-159.488" y="-216.715" transform="scale(-1,-1)" xml:space="preserve"><tspan id="tspan3790-3" x="-159.488" y="-216.715" style="font-style:normal;font-variant:normal;font-weight:400;font-stretch:normal;fill:#df0000;fill-opacity:1;font-family:Arial;-inkscape-font-specification:Arial">3</tspan></text><g id="layer1-2-6" transform="matrix(1.4769065,0,0,1.4769065,16.968095,44.236162)"><path style="fill:#df0000" id="dl-6" d="M 3.2433274,-4.7253274 C 1.1263274,-7.5893274 0,-10.5 0,-10.5 c 0,0 -1.1263274,2.9106726 -3.2433274,5.7746726 C -5.3613274,-1.8623274 -8,0 -8,0 -8,0 -5.3613274,1.8613274 -3.2433274,4.7263274 -1.1263274,7.5893274 0,10.5 0,10.5 0,10.5 1.1263274,7.5893274 3.2433274,4.7263274 5.3613274,1.8613274 8,0 8,0 8,0 5.3613274,-1.8623274 3.2433274,-4.7253274 z"/></g><g id="layer1-2-6-4" transform="matrix(1.4769065,0,0,1.4769065,150.62089,198.50346)"><path style="fill:#df0000" id="dl-6-9" d="M 3.2433274,-4.7253274 C 1.1263274,-7.5893274 0,-10.5 0,-10.5 c 0,0 -1.1263274,2.9106726 -3.2433274,5.7746726 C -5.3613274,-1.8623274 -8,0 -8,0 -8,0 -5.3613274,1.8613274 -3.2433274,4.7263274 -1.1263274,7.5893274 0,10.5 0,10.5 0,10.5 1.1263274,7.5893274 3.2433274,4.7263274 5.3613274,1.8613274 8,0 8,0 8,0 5.3613274,-1.8623274 3.2433274,-4.7253274 z"/></g><g id="layer1-2-6-8" transform="matrix(2.5882908,0,0,2.5882908,82.928726,192.02194)"><path style="fill:#df0000" id="dl-6-8" d="M 3.2433274,-4.7253274 C 1.1263274,-7.5893274 0,-10.5 0,-10.5 c 0,0 -1.1263274,2.9106726 -3.2433274,5.7746726 C -5.3613274,-1.8623274 -8,0 -8,0 -8,0 -5.3613274,1.8613274 -3.2433274,4.7263274 -1.1263274,7.5893274 0,10.5 0,10.5 0,10.5 1.1263274,7.5893274 3.2433274,4.7263274 5.3613274,1.8613274 8,0 8,0 8,0 5.3613274,-1.8623274 3.2433274,-4.7253274 z"/></g><g id="layer1-2-6-8-2" transform="matrix(2.5882908,0,0,2.5882908,82.928726,50.819539)"><path style="fill:#df0000" id="dl-6-8-6" d="M 3.2433274,-4.7253274 C 1.1263274,-7.5893274 0,-10.5 0,-10.5 c 0,0 -1.1263274,2.9106726 -3.2433274,5.7746726 C -5.3613274,-1.8623274 -8,0 -8,0 -8,0 -5.3613274,1.8613274 -3.2433274,4.7263274 -1.1263274,7.5893274 0,10.5 0,10.5 0,10.5 1.1263274,7.5893274 3.2433274,4.7263274 5.3613274,1.8613274 8,0 8,0 8,0 5.3613274,-1.8623274 3.2433274,-4.7253274 z"/></g><g id="layer1-2-6-8-2-8" transform="matrix(2.5882908,0,0,2.5882908,82.928726,120.52034)"><path style="fill:#df0000" id="dl-6-8-6-8" d="M 3.2433274,-4.7253274 C 1.1263274,-7.5893274 0,-10.5 0,-10.5 c 0,0 -1.1263274,2.9106726 -3.2433274,5.7746726 C -5.3613274,-1.8623274 -8,0 -8,0 -8,0 -5.3613274,1.8613274 -3.2433274,4.7263274 -1.1263274,7.5893274 0,10.5 0,10.5 0,10.5 1.1263274,7.5893274 3.2433274,4.7263274 5.3613274,1.8613274 8,0 8,0 8,0 5.3613274,-1.8623274 3.2433274,-4.7253274 z"/></g></svg>