<svg xmlns="http://www.w3.org/2000/svg" xmlns:svg="http://www.w3.org/2000/svg" xmlns:xlink="http://www.w3.org/1999/xlink" id="svg2" width="222.783" height="323.556" version="1.1" viewBox="0 0 167.087 242.667" xml:space="preserve"><metadata id="metadata43"/><defs id="defs41"><radialGradient id="radialGradient3781" cx="-.158" cy="-8.835" r="8" fx="-.158" fy="-8.835" gradientTransform="matrix(-1.5842693,-0.02349808,0.03071979,-2.4775745,-0.24856378,-26.713507)" gradientUnits="userSpaceOnUse" xlink:href="#linearGradient3773"/><linearGradient id="linearGradient3773"><stop style="stop-color:#000;stop-opacity:1" id="stop3775" offset="0"/><stop style="stop-color:#000;stop-opacity:.64885497" id="stop3777" offset="1"/></linearGradient><radialGradient id="radialGradient3957" cx="-.158" cy="-8.835" r="8" fx="-.158" fy="-8.835" gradientTransform="matrix(-1.5842693,-0.02349808,0.03071979,-2.4775745,-0.24856378,-26.713507)" gradientUnits="userSpaceOnUse" xlink:href="#linearGradient3773"/><linearGradient id="linearGradient3959"><stop style="stop-color:#000;stop-opacity:1" id="stop3961" offset="0"/><stop style="stop-color:#000;stop-opacity:.64885497" id="stop3963" offset="1"/></linearGradient><radialGradient id="radialGradient3975" cx="168.025" cy="509.476" r="81.903" fx="168.025" fy="509.476" gradientTransform="matrix(1.2565605,-0.77740644,0.33663816,0.5361257,-221.20213,359.24256)" gradientUnits="userSpaceOnUse" xlink:href="#linearGradient3784-4"/><linearGradient id="linearGradient3784-4"><stop style="stop-color:#fff;stop-opacity:.4351145" id="stop3786-8" offset="0"/><stop style="stop-color:#000;stop-opacity:0" id="stop3788-6" offset="1"/></linearGradient><radialGradient id="radialGradient3929" cx="168.025" cy="509.476" r="81.903" fx="168.025" fy="509.476" gradientTransform="matrix(1.2565605,-0.77740644,0.33663816,0.5361257,-221.20213,359.24256)" gradientUnits="userSpaceOnUse" xlink:href="#linearGradient3784-4-5"/><linearGradient id="linearGradient3784-4-5"><stop style="stop-color:#fff;stop-opacity:.48854962" id="stop3786-8-0" offset="0"/><stop style="stop-color:#000;stop-opacity:0" id="stop3788-6-3" offset="1"/></linearGradient><radialGradient id="radialGradient3927" cx="168.025" cy="509.476" r="81.903" fx="168.025" fy="509.476" gradientTransform="matrix(1.2565605,-0.77740644,0.33663816,0.5361257,-221.20213,359.24256)" gradientUnits="userSpaceOnUse" xlink:href="#linearGradient3784-4-1"/><linearGradient id="linearGradient3784-4-1"><stop style="stop-color:#fff;stop-opacity:.23664123" id="stop3786-8-03" offset="0"/><stop style="stop-color:#000;stop-opacity:0" id="stop3788-6-6" offset="1"/></linearGradient><radialGradient id="radialGradient3776" cx="-.206" cy="-4.579" r="8" fx="-.206" fy="-4.579" gradientTransform="matrix(-1,0,0,-1.7201755,-0.41204074,-13.027194)" gradientUnits="userSpaceOnUse" xlink:href="#linearGradient3768"/><linearGradient id="linearGradient3768"><stop style="stop-color:#df0000;stop-opacity:1" id="stop3770" offset="0"/><stop style="stop-color:#df0000;stop-opacity:.67175573" id="stop3772" offset="1"/></linearGradient><radialGradient id="radialGradient4013" cx="171.487" cy="511.223" r="81.903" fx="171.487" fy="511.223" gradientTransform="matrix(1.1529891,-0.67391547,0.39482025,0.67549043,-233.63262,270.40076)" gradientUnits="userSpaceOnUse" xlink:href="#linearGradient3784-4-6"/><linearGradient id="linearGradient3784-4-6"><stop style="stop-color:#fff;stop-opacity:.31297711" id="stop3786-8-8" offset="0"/><stop style="stop-color:#000;stop-opacity:0" id="stop3788-6-8" offset="1"/></linearGradient><radialGradient id="radialGradient4013-8" cx="159.354" cy="492.632" r="81.903" fx="159.354" fy="492.632" gradientTransform="matrix(1.0894779,-0.71513803,0.44645273,0.65626582,-244.93331,290.9185)" gradientUnits="userSpaceOnUse" xlink:href="#linearGradient3784-4-2"/><linearGradient id="linearGradient3784-4-2"><stop style="stop-color:#fff;stop-opacity:.29007635" id="stop3786-8-1" offset="0"/><stop style="stop-color:#000;stop-opacity:0" id="stop3788-6-5" offset="1"/></linearGradient><radialGradient id="radialGradient3073" cx="159.354" cy="492.632" r="81.903" fx="159.354" fy="492.632" gradientTransform="matrix(1.0894779,-0.71513803,0.44645273,0.65626582,-244.93331,290.9185)" gradientUnits="userSpaceOnUse" xlink:href="#linearGradient3784-4-2"/></defs><g id="Layer_x0020_1" style="fill-rule:nonzero;clip-rule:nonzero;stroke:#000;stroke-miterlimit:4"><path style="fill:#fff;stroke-width:.5" id="path5" d="M166.8369141,235.5478516c0,3.7773438-3.0869141,6.8691406-6.8710938,6.8691406H7.1108398c-3.7749023,0-6.8608398-3.0917969-6.8608398-6.8691406V7.1201172C0.25,3.3427734,3.3359375,0.25,7.1108398,0.25h152.8549805 c3.7841797,0,6.8710938,3.0927734,6.8710938,6.8701172v228.4277344z"/></g><text style="font-size:32px;font-style:normal;font-weight:400;line-height:125%;letter-spacing:0;word-spacing:0;fill:#df0000;fill-opacity:1;stroke:none;font-family:Bitstream Vera Sans" id="text3788" x="8.775" y="28.013" xml:space="preserve"><tspan id="tspan3790" x="8.775" y="28.013" style="font-style:normal;font-variant:normal;font-weight:400;font-stretch:normal;fill:#df0000;fill-opacity:1;font-family:Arial;-inkscape-font-specification:Arial">4</tspan></text><g id="layer1-9-6" transform="matrix(1.6743072,0,0,1.5669921,17.177511,46.385321)" style="fill:#df0000;fill-opacity:1"><path style="fill:#df0000;fill-opacity:1" id="hl-8" d="M 3.676,-9 C 0.433,-9 0,-5.523 0,-5.523 0,-5.523 -0.433,-9 -3.676,-9 -5.946,-9 -8,-7.441 -8,-4.5 -8,-0.614 -1.4208493,3.2938141 0,9 1.35201,3.2985969 8,-0.614 8,-4.5 8,-7.441 5.946,-9 3.676,-9 z"/></g><text style="font-size:32px;font-style:normal;font-weight:400;line-height:125%;letter-spacing:0;word-spacing:0;fill:#df0000;fill-opacity:1;stroke:none;font-family:Bitstream Vera Sans" id="text3788-4" x="-158.818" y="-213.515" transform="scale(-1,-1)" xml:space="preserve"><tspan id="tspan3790-3" x="-158.818" y="-213.515" style="font-style:normal;font-variant:normal;font-weight:400;font-stretch:normal;fill:#df0000;fill-opacity:1;font-family:Arial;-inkscape-font-specification:Arial">4</tspan></text><g id="layer1-9-6-5" transform="matrix(-1.6743072,0,0,-1.5669921,150.15601,195.14313)" style="fill:#df0000;fill-opacity:1"><path style="fill:#df0000;fill-opacity:1" id="hl-8-1" d="M 3.676,-9 C 0.433,-9 0,-5.523 0,-5.523 0,-5.523 -0.433,-9 -3.676,-9 -5.946,-9 -8,-7.441 -8,-4.5 -8,-0.614 -1.4208493,3.2938141 0,9 1.35201,3.2985969 8,-0.614 8,-4.5 8,-7.441 5.946,-9 3.676,-9 z"/></g><g id="layer1-9-6-8" transform="matrix(2.7790082,0,0,2.600887,56.112268,64.859768)" style="fill:#df0000;fill-opacity:1"><path style="fill:#df0000;fill-opacity:1" id="hl-8-8" d="M 3.676,-9 C 0.433,-9 0,-5.523 0,-5.523 0,-5.523 -0.433,-9 -3.676,-9 -5.946,-9 -8,-7.441 -8,-4.5 -8,-0.614 -1.4208493,3.2938141 0,9 1.35201,3.2985969 8,-0.614 8,-4.5 8,-7.441 5.946,-9 3.676,-9 z"/></g><g id="layer1-9-6-8-9" transform="matrix(-2.7790082,0,0,-2.600887,56.112268,177.26217)" style="fill:#df0000;fill-opacity:1"><path style="fill:#df0000;fill-opacity:1" id="hl-8-8-5" d="M 3.676,-9 C 0.433,-9 0,-5.523 0,-5.523 0,-5.523 -0.433,-9 -3.676,-9 -5.946,-9 -8,-7.441 -8,-4.5 -8,-0.614 -1.4208493,3.2938141 0,9 1.35201,3.2985969 8,-0.614 8,-4.5 8,-7.441 5.946,-9 3.676,-9 z"/></g><g id="layer1-9-6-8-0" transform="matrix(2.7790082,0,0,2.600887,110.70455,65.1323)" style="fill:#df0000;fill-opacity:1"><path style="fill:#df0000;fill-opacity:1" id="hl-8-8-6" d="M 3.676,-9 C 0.433,-9 0,-5.523 0,-5.523 0,-5.523 -0.433,-9 -3.676,-9 -5.946,-9 -8,-7.441 -8,-4.5 -8,-0.614 -1.4208493,3.2938141 0,9 1.35201,3.2985969 8,-0.614 8,-4.5 8,-7.441 5.946,-9 3.676,-9 z"/></g><g id="layer1-9-6-8-9-8" transform="matrix(-2.7790082,0,0,-2.600887,110.70455,177.53469)" style="fill:#df0000;fill-opacity:1"><path style="fill:#df0000;fill-opacity:1" id="hl-8-8-5-9" d="M 3.676,-9 C 0.433,-9 0,-5.523 0,-5.523 0,-5.523 -0.433,-9 -3.676,-9 -5.946,-9 -8,-7.441 -8,-4.5 -8,-0.614 -1.4208493,3.2938141 0,9 1.35201,3.2985969 8,-0.614 8,-4.5 8,-7.441 5.946,-9 3.676,-9 z"/></g></svg>