<svg xmlns="http://www.w3.org/2000/svg" xmlns:svg="http://www.w3.org/2000/svg" xmlns:xlink="http://www.w3.org/1999/xlink" id="svg2" width="222.783" height="323.556" version="1.1" viewBox="0 0 167.087 242.667" xml:space="preserve"><metadata id="metadata43"/><defs id="defs41"><radialGradient id="radialGradient3760" cx="48.231" cy="18.138" r="9.5" fx="48.231" fy="18.138" gradientTransform="matrix(-1.5605256,0.01828294,-0.02684055,-2.2909528,123.98377,58.809108)" gradientUnits="userSpaceOnUse" xlink:href="#linearGradient2984"/><linearGradient id="linearGradient2984"><stop style="stop-color:#000;stop-opacity:1" id="stop2986" offset="0"/><stop style="stop-color:#000;stop-opacity:.65648854" id="stop2988" offset="1"/></linearGradient><radialGradient id="radialGradient3792" cx="171.487" cy="511.223" r="81.903" fx="171.487" fy="511.223" gradientTransform="matrix(1.1529891,-0.67391547,0.39482025,0.67549043,-233.63262,270.40076)" gradientUnits="userSpaceOnUse" xlink:href="#linearGradient3784"/><linearGradient id="linearGradient3784"><stop style="stop-color:#fff;stop-opacity:.53435117" id="stop3786" offset="0"/><stop style="stop-color:#000;stop-opacity:0" id="stop3788" offset="1"/></linearGradient><radialGradient id="radialGradient3855" cx="171.487" cy="511.223" r="81.903" fx="171.487" fy="511.223" gradientTransform="matrix(1.1529891,-0.67391547,0.39482025,0.67549043,-233.63262,270.40076)" gradientUnits="userSpaceOnUse" xlink:href="#linearGradient3784-4"/><linearGradient id="linearGradient3784-4"><stop style="stop-color:#fff;stop-opacity:.51908398" id="stop3786-8" offset="0"/><stop style="stop-color:#000;stop-opacity:0" id="stop3788-6" offset="1"/></linearGradient><radialGradient id="radialGradient3916" cx="181.694" cy="461.841" r="81.903" fx="181.694" fy="461.841" gradientTransform="matrix(1.1529891,-0.67391547,0.39482025,0.67549043,-233.63262,270.40076)" gradientUnits="userSpaceOnUse" xlink:href="#linearGradient3784-3"/><linearGradient id="linearGradient3784-3"><stop style="stop-color:#fff;stop-opacity:.70229006" id="stop3786-86" offset="0"/><stop style="stop-color:#000;stop-opacity:0" id="stop3788-2" offset="1"/></linearGradient></defs><g id="Layer_x0020_1" style="fill-rule:nonzero;clip-rule:nonzero;stroke:#000;stroke-miterlimit:4"><path style="fill:#fff;stroke-width:.5" id="path5" d="M166.8369141,235.5478516c0,3.7773438-3.0869141,6.8691406-6.8710938,6.8691406H7.1108398c-3.7749023,0-6.8608398-3.0917969-6.8608398-6.8691406V7.1201172C0.25,3.3427734,3.3359375,0.25,7.1108398,0.25h152.8549805 c3.7841797,0,6.8710938,3.0927734,6.8710938,6.8701172v228.4277344z"/></g><text style="font-size:32px;font-style:normal;font-weight:400;line-height:125%;letter-spacing:0;word-spacing:0;fill:#000;fill-opacity:1;stroke:none;font-family:Bitstream Vera Sans" id="text3788" x="8.311" y="27.548" xml:space="preserve"><tspan id="tspan3790" x="8.311" y="27.548" style="font-style:normal;font-variant:normal;font-weight:400;font-stretch:normal;font-family:Arial;-inkscape-font-specification:Arial">9</tspan></text><g id="layer1-1-4" transform="matrix(1.4856506,0,0,1.4856506,-54.024661,10.018072)"><path id="cl-9" d="m 50.291466,22.698228 c 0,0 2.375,-1.9 2.375,-4.534 0,-1.542 -1.369,-4.102 -4.534,-4.102 -3.165,0 -4.534,2.561 -4.534,4.102 0,2.634 2.375,4.534 2.375,4.534 -2.638,-2.055 -7.341,-0.652 -7.341,3.455 0,2.056 1.68,4.318 4.318,4.318 3.165,0 4.534,-3.455 4.534,-3.455 0,0 0.402,3.938 -1.943,6.046 h 5.182 c -2.345,-2.107 -1.943,-6.046 -1.943,-6.046 0,0 1.369,3.455 4.534,3.455 2.639,0 4.318,-2.263 4.318,-4.318 0,-4.107 -4.703,-5.51 -7.341,-3.455 z" style="fill:#000"/></g><text style="font-size:32px;font-style:normal;font-weight:400;line-height:125%;letter-spacing:0;word-spacing:0;fill:#000;fill-opacity:1;stroke:none;font-family:Bitstream Vera Sans" id="text3788-8" x="-158.864" y="-214.467" transform="scale(-1,-1)" xml:space="preserve"><tspan id="tspan3790-7" x="-158.864" y="-214.467" style="font-style:normal;font-variant:normal;font-weight:400;font-stretch:normal;font-family:Arial;-inkscape-font-specification:Arial">9</tspan></text><g id="layer1-1-4-1" transform="matrix(-1.4856506,0,0,-1.4856506,221.19916,232.46182)"><path id="cl-9-7" d="m 50.291466,22.698228 c 0,0 2.375,-1.9 2.375,-4.534 0,-1.542 -1.369,-4.102 -4.534,-4.102 -3.165,0 -4.534,2.561 -4.534,4.102 0,2.634 2.375,4.534 2.375,4.534 -2.638,-2.055 -7.341,-0.652 -7.341,3.455 0,2.056 1.68,4.318 4.318,4.318 3.165,0 4.534,-3.455 4.534,-3.455 0,0 0.402,3.938 -1.943,6.046 h 5.182 c -2.345,-2.107 -1.943,-6.046 -1.943,-6.046 0,0 1.369,3.455 4.534,3.455 2.639,0 4.318,-2.263 4.318,-4.318 0,-4.107 -4.703,-5.51 -7.341,-3.455 z" style="fill:#000"/></g><path style="fill:#000" id="cl-9-8" d="m 57.572834,25.099947 c 0,0 5.967372,-4.773898 5.967372,-11.392027 0,-3.8743954 -3.43972,-10.3065945 -11.392028,-10.3065945 -7.952308,0 -11.392028,6.4347116 -11.392028,10.3065945 0,6.618129 5.967373,11.392027 5.967373,11.392027 -6.62818,-5.163348 -18.444833,-1.638201 -18.444833,8.680956 0,5.16586 4.22113,10.849311 10.849311,10.849311 7.952308,0 11.392027,-8.680956 11.392027,-8.680956 0,0 1.010056,9.894531 -4.881939,15.191045 h 13.020178 c -5.891994,-5.294001 -4.881938,-15.191045 -4.881938,-15.191045 0,0 3.439718,8.680956 11.392027,8.680956 6.630693,0 10.849311,-5.685963 10.849311,-10.849311 0,-10.319157 -11.816654,-13.844304 -18.444833,-8.680956 z"/><path style="fill:#000" id="cl-9-8-0" d="m 57.110434,93.200747 c 0,0 5.967372,-4.773898 5.967372,-11.392027 0,-3.874396 -3.43972,-10.306594 -11.392028,-10.306594 -7.952308,0 -11.392028,6.434711 -11.392028,10.306594 0,6.618129 5.967373,11.392027 5.967373,11.392027 -6.62818,-5.163348 -18.444833,-1.638201 -18.444833,8.680953 0,5.16587 4.22113,10.84932 10.849311,10.84932 7.952308,0 11.392027,-8.68096 11.392027,-8.68096 0,0 1.010056,9.89453 -4.881939,15.19104 h 13.020178 c -5.891994,-5.294 -4.881938,-15.19104 -4.881938,-15.19104 0,0 3.439718,8.68096 11.392027,8.68096 6.630693,0 10.849311,-5.68597 10.849311,-10.84932 0,-10.319154 -11.816654,-13.844301 -18.444833,-8.680953 z"/><path style="fill:#000" id="cl-9-8-9" d="m 121.55789,24.926219 c 0,0 5.96737,-4.773898 5.96737,-11.392027 0,-3.8743954 -3.43971,-10.3065945 -11.39203,-10.3065945 -7.95231,0 -11.39202,6.4347116 -11.39202,10.3065945 0,6.618129 5.96737,11.392027 5.96737,11.392027 -6.62818,-5.163348 -18.444834,-1.638201 -18.444834,8.680956 0,5.16586 4.22113,10.849311 10.849304,10.849311 7.95231,0 11.39203,-8.680956 11.39203,-8.680956 0,0 1.01006,9.894531 -4.88193,15.191045 h 13.02017 c -5.89199,-5.294001 -4.88193,-15.191045 -4.88193,-15.191045 0,0 3.43971,8.680956 11.39202,8.680956 6.63069,0 10.84931,-5.685963 10.84931,-10.849311 0,-10.319157 -11.81665,-13.844304 -18.44483,-8.680956 z"/><path style="fill:#000" id="cl-9-8-0-4" d="m 121.55789,93.027019 c 0,0 5.96737,-4.773898 5.96737,-11.392028 0,-3.874395 -3.43971,-10.306593 -11.39203,-10.306593 -7.95231,0 -11.39202,6.434711 -11.39202,10.306593 0,6.61813 5.96737,11.392028 5.96737,11.392028 -6.62818,-5.163348 -18.444834,-1.638201 -18.444834,8.680951 0,5.16587 4.22113,10.84932 10.849304,10.84932 7.95231,0 11.39203,-8.68096 11.39203,-8.68096 0,0 1.01006,9.89453 -4.88193,15.19104 h 13.02017 c -5.89199,-5.294 -4.88193,-15.19104 -4.88193,-15.19104 0,0 3.43971,8.68096 11.39202,8.68096 6.63069,0 10.84931,-5.68597 10.84931,-10.84932 0,-10.319152 -11.81665,-13.844299 -18.44483,-8.680951 z"/><path style="fill:#000" id="cl-9-8-8" d="m 89.576544,59.281103 c 0,0 5.967372,-4.773897 5.967372,-11.392027 0,-3.874395 -3.43972,-10.306594 -11.392028,-10.306594 -7.952308,0 -11.392028,6.434712 -11.392028,10.306594 0,6.61813 5.967373,11.392027 5.967373,11.392027 C 72.099053,54.117756 60.2824,57.642902 60.2824,67.96206 c 0,5.165859 4.22113,10.84931 10.849311,10.84931 7.952308,0 11.392027,-8.680956 11.392027,-8.680956 0,0 1.010056,9.894531 -4.881939,15.191045 h 13.020178 c -5.891994,-5.294001 -4.881938,-15.191045 -4.881938,-15.191045 0,0 3.439718,8.680956 11.392027,8.680956 6.630694,0 10.849314,-5.685963 10.849314,-10.84931 0,-10.319158 -11.816657,-13.844304 -18.444836,-8.680957 z"/><path style="fill:#000" id="cl-9-8-4" d="m 110.06258,217.80216 c 0,0 -5.96737,4.77391 -5.96737,11.39203 0,3.8744 3.43971,10.3066 11.39202,10.3066 7.95232,0 11.39203,-6.43471 11.39203,-10.3066 0,-6.61812 -5.96737,-11.39203 -5.96737,-11.39203 6.62818,5.16335 18.44483,1.6382 18.44483,-8.68095 0,-5.16586 -4.22112,-10.84931 -10.84931,-10.84931 -7.95231,0 -11.39202,8.68095 -11.39202,8.68095 0,0 -1.01006,-9.89453 4.88193,-15.19104 h -13.02017 c 5.89199,5.294 4.88193,15.19104 4.88193,15.19104 0,0 -3.43972,-8.68095 -11.39203,-8.68095 -6.630687,0 -10.849305,5.68596 -10.849305,10.84931 0,10.31915 11.816655,13.8443 18.444835,8.68095 z"/><path style="fill:#000" id="cl-9-8-0-2" d="m 110.70832,149.70136 c 0,0 -5.96737,4.77391 -5.96737,11.39203 0,3.8744 3.43971,10.3066 11.39202,10.3066 7.95232,0 11.39203,-6.43471 11.39203,-10.3066 0,-6.61812 -5.96737,-11.39203 -5.96737,-11.39203 6.62818,5.16335 18.44483,1.6382 18.44483,-8.68095 0,-5.16586 -4.22112,-10.84931 -10.84931,-10.84931 -7.95231,0 -11.39202,8.68095 -11.39202,8.68095 0,0 -1.01006,-9.89453 4.88193,-15.19104 h -13.02017 c 5.89199,5.294 4.88193,15.19104 4.88193,15.19104 0,0 -3.43972,-8.68095 -11.39203,-8.68095 -6.630687,0 -10.849305,5.68596 -10.849305,10.84931 0,10.31915 11.816655,13.8443 18.444835,8.68095 z"/><path style="fill:#000" id="cl-9-8-9-6" d="m 46.077528,217.97589 c 0,0 -5.967372,4.77391 -5.967372,11.39203 0,3.8744 3.43972,10.3066 11.392028,10.3066 7.952308,0 11.392028,-6.43471 11.392028,-10.3066 0,-6.61812 -5.967373,-11.39203 -5.967373,-11.39203 6.62818,5.16335 18.444833,1.6382 18.444833,-8.68095 0,-5.16586 -4.22113,-10.84931 -10.849311,-10.84931 -7.952308,0 -11.392027,8.68095 -11.392027,8.68095 0,0 -1.010056,-9.89453 4.881939,-15.19104 H 44.992095 c 5.891994,5.294 4.881938,15.19104 4.881938,15.19104 0,0 -3.439718,-8.68095 -11.392027,-8.68095 -6.630693,0 -10.849311,5.68596 -10.849311,10.84931 0,10.31915 11.816654,13.8443 18.444833,8.68095 z"/><path style="fill:#000" id="cl-9-8-0-4-9" d="m 46.261118,149.87509 c 0,0 -5.967372,4.77391 -5.967372,11.39203 0,3.8744 3.43972,10.3066 11.392028,10.3066 7.952308,0 11.392028,-6.43471 11.392028,-10.3066 0,-6.61812 -5.967373,-11.39203 -5.967373,-11.39203 6.62818,5.16335 18.444833,1.6382 18.444833,-8.68095 0,-5.16586 -4.22113,-10.84931 -10.849311,-10.84931 -7.952308,0 -11.392027,8.68095 -11.392027,8.68095 0,0 -1.010056,-9.89453 4.881939,-15.19104 H 45.175685 c 5.891994,5.294 4.881938,15.19104 4.881938,15.19104 0,0 -3.439718,-8.68095 -11.392027,-8.68095 -6.630693,0 -10.849311,5.68596 -10.849311,10.84931 0,10.31915 11.816654,13.8443 18.444833,8.68095 z"/></svg>