<svg xmlns="http://www.w3.org/2000/svg" xmlns:svg="http://www.w3.org/2000/svg" id="svg2" width="222.783" height="323.556" version="1.1" viewBox="0 0 167.087 242.667" xml:space="preserve"><metadata id="metadata43"/><g id="Layer_x0020_1" style="fill-rule:nonzero;clip-rule:nonzero;stroke:#000;stroke-miterlimit:4"><path style="fill:#fff;stroke-width:.5" id="path5" d="M166.8369141,235.5478516c0,3.7773438-3.0869141,6.8691406-6.8710938,6.8691406H7.1108398c-3.7749023,0-6.8608398-3.0917969-6.8608398-6.8691406V7.1201172C0.25,3.3427734,3.3359375,0.25,7.1108398,0.25h152.8549805 c3.7841797,0,6.8710938,3.0927734,6.8710938,6.8701172v228.4277344z"/></g><text style="font-size:32px;font-style:normal;font-weight:400;line-height:125%;letter-spacing:0;word-spacing:0;fill:#000;fill-opacity:1;stroke:none;font-family:Bitstream Vera Sans" id="text3788" x="3.945" y="27.356" xml:space="preserve"><tspan id="tspan3790" x="3.945" y="27.356" style="font-style:italic;font-variant:normal;font-weight:700;font-stretch:normal;font-family:LMMathSymbols9;-inkscape-font-specification:LMMathSymbols9 Bold Italic">J</tspan></text><g id="layer1-7-88" transform="matrix(2.2711763,2.2711763,-2.0765626,2.0765626,117.0668,94.436511)"><path id="sl-4" d="M 7.989,3.103 C 7.747,-0.954 0.242,-8.59 0,-10.5 c -0.242,1.909 -7.747,9.545 -7.989,13.603 -0.169,2.868 1.695,4.057 3.39,4.057 1.8351685,-0.021581 3.3508701,-2.8006944 3.873,-3.341 0.242,0.716 -1.603,6.682 -2.179,6.682 l 5.811,0 C 2.33,10.501 0.485,4.535 0.727,3.819 1.1841472,4.3152961 2.5241276,7.0768295 4.601,7.16 6.295,7.159 8.158,5.971 7.989,3.103 z" style="fill:#000"/></g><text style="font-size:32px;font-style:normal;font-weight:400;line-height:125%;letter-spacing:0;word-spacing:0;fill:#000;fill-opacity:1;stroke:none;font-family:Bitstream Vera Sans" id="text3019" x="4.273" y="49.051" xml:space="preserve"><tspan id="tspan3021" x="4.273" y="49.051" style="font-size:38.40000153px;font-style:italic;font-variant:normal;font-weight:700;font-stretch:normal;font-family:URW Chancery L;-inkscape-font-specification:URW Chancery L Bold Italic">o</tspan></text><text style="font-size:32px;font-style:normal;font-weight:400;line-height:125%;letter-spacing:0;word-spacing:0;fill:#000;fill-opacity:1;stroke:none;font-family:Bitstream Vera Sans" id="text3023" x="2.63" y="76.992" xml:space="preserve"><tspan id="tspan3025" x="2.63" y="76.992" style="font-size:38.40000153px;font-style:italic;font-variant:normal;font-weight:700;font-stretch:normal;font-family:URW Chancery L;-inkscape-font-specification:URW Chancery L Bold Italic">k</tspan></text><text style="font-size:32px;font-style:normal;font-weight:400;line-height:125%;letter-spacing:0;word-spacing:0;fill:#000;fill-opacity:1;stroke:none;font-family:Bitstream Vera Sans" id="text3027" x="2.63" y="99.345" xml:space="preserve"><tspan id="tspan3029" x="2.63" y="99.345" style="font-size:38.40000153px;font-style:italic;font-variant:normal;font-weight:700;font-stretch:normal;font-family:URW Chancery L;-inkscape-font-specification:URW Chancery L Bold Italic">e</tspan></text><text style="font-size:32px;font-style:normal;font-weight:400;line-height:125%;letter-spacing:0;word-spacing:0;fill:#000;fill-opacity:1;stroke:none;font-family:Bitstream Vera Sans" id="text3031" x="2.301" y="120.383" xml:space="preserve"><tspan id="tspan3033" x="2.301" y="120.383" style="font-size:38.40000153px;font-style:italic;font-variant:normal;font-weight:700;font-stretch:normal;font-family:URW Chancery L;-inkscape-font-specification:URW Chancery L Bold Italic">r</tspan></text><g id="layer1-9" transform="matrix(2.374378,-2.374378,2.2221918,2.2221918,59.383523,95.635421)"><path style="fill:#df0000" id="hl" d="M 3.676,-9 C 0.433,-9 0,-5.523 0,-5.523 0,-5.523 -0.433,-9 -3.676,-9 -5.946,-9 -8,-7.441 -8,-4.5 -8,-0.614 -1.4208493,3.2938141 0,9 1.35201,3.2985969 8,-0.614 8,-4.5 8,-7.441 5.946,-9 3.676,-9 z"/></g><g id="layer1-1" transform="matrix(-2.145754,-2.145754,2.145754,-2.145754,110.19878,305.77847)"><path id="cl" d="m 50.291466,22.698228 c 0,0 2.375,-1.9 2.375,-4.534 0,-1.542 -1.369,-4.102 -4.534,-4.102 -3.165,0 -4.534,2.561 -4.534,4.102 0,2.634 2.375,4.534 2.375,4.534 -2.638,-2.055 -7.341,-0.652 -7.341,3.455 0,2.056 1.68,4.318 4.318,4.318 3.165,0 4.534,-3.455 4.534,-3.455 0,0 0.402,3.938 -1.943,6.046 h 5.182 c -2.345,-2.107 -1.943,-6.046 -1.943,-6.046 0,0 1.369,3.455 4.534,3.455 2.639,0 4.318,-2.263 4.318,-4.318 0,-4.107 -4.703,-5.51 -7.341,-3.455 z" style="fill:#000"/></g><g id="layer1-2" transform="matrix(2.235014,-2.235014,2.235014,2.235014,117.78936,156.16707)"><path style="fill:#df0000" id="dl" d="M 3.2433274,-4.7253274 C 1.1263274,-7.5893274 0,-10.5 0,-10.5 c 0,0 -1.1263274,2.9106726 -3.2433274,5.7746726 C -5.3613274,-1.8623274 -8,0 -8,0 -8,0 -5.3613274,1.8613274 -3.2433274,4.7263274 -1.1263274,7.5893274 0,10.5 0,10.5 0,10.5 1.1263274,7.5893274 3.2433274,4.7263274 5.3613274,1.8613274 8,0 8,0 8,0 5.3613274,-1.8623274 3.2433274,-4.7253274 z"/></g><text style="font-size:32px;font-style:normal;font-weight:400;line-height:125%;letter-spacing:0;word-spacing:0;fill:#000;fill-opacity:1;stroke:none;font-family:Bitstream Vera Sans" id="text3788-8" x="-163.716" y="-215.002" transform="scale(-1,-1)" xml:space="preserve"><tspan id="tspan3790-8" x="-163.716" y="-215.002" style="font-style:italic;font-variant:normal;font-weight:700;font-stretch:normal;font-family:LMMathSymbols9;-inkscape-font-specification:LMMathSymbols9 Bold Italic">J</tspan></text><text style="font-size:32px;font-style:normal;font-weight:400;line-height:125%;letter-spacing:0;word-spacing:0;fill:#000;fill-opacity:1;stroke:none;font-family:Bitstream Vera Sans" id="text3019-4" x="-163.387" y="-193.306" transform="scale(-1,-1)" xml:space="preserve"><tspan id="tspan3021-3" x="-163.387" y="-193.306" style="font-size:38.40000153px;font-style:italic;font-variant:normal;font-weight:700;font-stretch:normal;font-family:URW Chancery L;-inkscape-font-specification:URW Chancery L Bold Italic">o</tspan></text><text style="font-size:32px;font-style:normal;font-weight:400;line-height:125%;letter-spacing:0;word-spacing:0;fill:#000;fill-opacity:1;stroke:none;font-family:Bitstream Vera Sans" id="text3023-1" x="-165.031" y="-165.365" transform="scale(-1,-1)" xml:space="preserve"><tspan id="tspan3025-4" x="-165.031" y="-165.365" style="font-size:38.40000153px;font-style:italic;font-variant:normal;font-weight:700;font-stretch:normal;font-family:URW Chancery L;-inkscape-font-specification:URW Chancery L Bold Italic">k</tspan></text><text style="font-size:32px;font-style:normal;font-weight:400;line-height:125%;letter-spacing:0;word-spacing:0;fill:#000;fill-opacity:1;stroke:none;font-family:Bitstream Vera Sans" id="text3027-9" x="-165.031" y="-143.012" transform="scale(-1,-1)" xml:space="preserve"><tspan id="tspan3029-2" x="-165.031" y="-143.012" style="font-size:38.40000153px;font-style:italic;font-variant:normal;font-weight:700;font-stretch:normal;font-family:URW Chancery L;-inkscape-font-specification:URW Chancery L Bold Italic">e</tspan></text><text style="font-size:32px;font-style:normal;font-weight:400;line-height:125%;letter-spacing:0;word-spacing:0;fill:#000;fill-opacity:1;stroke:none;font-family:Bitstream Vera Sans" id="text3031-0" x="-165.36" y="-121.974" transform="scale(-1,-1)" xml:space="preserve"><tspan id="tspan3033-6" x="-165.36" y="-121.974" style="font-size:38.40000153px;font-style:italic;font-variant:normal;font-weight:700;font-stretch:normal;font-family:URW Chancery L;-inkscape-font-specification:URW Chancery L Bold Italic">r</tspan></text></svg>